<svg xmlns="http://www.w3.org/2000/svg" style="display:none;">
    <symbol id="icon-home" viewBox="0 0 24 24">
        <path d="M10 20v-6h4v6h5v-8h3L12 3 2 12h3v8z"/>
    </symbol>
    <symbol id="icon-user" viewBox="0 0 24 24">
        <path d="M12 12c2.67 0 8 1.34 8 4v2H4v-2c0-2.66 5.33-4 8-4zm0-9c-2.67 0-5 2.33-5 5s2.33 5 5 5 5-2.33 5-5-2.33-5-5-5z"/>
    </symbol>
    <symbol id="icon-settings" viewBox="0 0 24 24">
        <path d="M12 0a1.5 1.5 0 0 1 1.5 1.5v1.5A1.5 1.5 0 0 1 12 4.5 1.5 1.5 0 0 1 10.5 3V1.5A1.5 1.5 0 0 1 12 0zm0 15a4.5 4.5 0 0 0-4.5 4.5v1.5A1.5 1.5 0 0 0 12 22a1.5 1.5 0 0 0 1.5-1.5v-1.5A4.5 4.5 0 0 0 12 15zm9-9a1.5 1.5 0 0 1-1.5-1.5v-1.5A1.5 1.5 0 0 1 21 0a1.5 1.5 0 0 1 1.5 1.5v1.5A1.5 1.5 0 0 1 21 6zM3 12a1.5 1.5 0 0 1-1.5-1.5V9A1.5 1.5 0 0 1 3 7.5 1.5 1.5 0 0 1 4.5 9v1.5A1.5 1.5 0 0 1 3 12z"/>
    </symbol>
</svg>